<?xml version="1.0" standalone="no"?><!DOCTYPE svg PUBLIC "-//W3C//DTD SVG 1.1//EN" "http://www.w3.org/Graphics/SVG/1.1/DTD/svg11.dtd"><svg t="1769048901565" class="icon" viewBox="0 0 1024 1024" version="1.1" xmlns="http://www.w3.org/2000/svg" p-id="5870" xmlns:xlink="http://www.w3.org/1999/xlink" width="200" height="200"><path d="M512 271.9744c68.1984 0 132.5056 26.624 181.0432 74.9568 48.3328 48.3328 74.9568 112.64 74.9568 181.0432 0 68.4032-26.624 132.7104-74.9568 181.0432-48.3328 48.3328-112.64 74.9568-181.0432 74.9568h-194.7648l19.0464-28.0576c13.7216-20.2752 10.4448-47.3088-7.5776-63.8976-9.216-8.3968-17.408-16.9984-24.7808-25.8048-36.864-44.4416-48.128-76.8-48.128-138.24 0-68.4032 26.624-132.7104 74.9568-181.0432s112.8448-74.9568 181.248-74.9568m0-49.152c-168.5504 0-305.152 136.6016-305.152 305.152 0 73.9328 15.5648 116.9408 59.392 169.5744 9.0112 10.8544 18.8416 21.0944 29.4912 30.72l-61.0304 90.3168c-4.096 6.144 0.2048 14.5408 7.7824 14.5408H512c168.5504 0 305.152-136.6016 305.152-305.152 0-168.3456-136.8064-305.152-305.152-305.152z" p-id="5871"></path><path d="M393.216 527.9744m-15.36 0a15.36 15.36 0 1 0 30.72 0 15.36 15.36 0 1 0-30.72 0Z" fill="#FFFFFF" p-id="5872"></path><path d="M393.216 488.0384c-22.1184 0-39.936 17.8176-39.936 39.936s17.8176 39.936 39.936 39.936 39.936-17.8176 39.936-39.936c0-21.9136-17.8176-39.936-39.936-39.936z" p-id="5873"></path><path d="M522.4448 527.9744m-15.36 0a15.36 15.36 0 1 0 30.72 0 15.36 15.36 0 1 0-30.72 0Z" fill="#FFFFFF" p-id="5874"></path><path d="M522.4448 488.0384c-22.1184 0-39.936 17.8176-39.936 39.936s17.8176 39.936 39.936 39.936 39.936-17.8176 39.936-39.936c0-21.9136-17.8176-39.936-39.936-39.936z" p-id="5875"></path><path d="M651.8784 527.9744m-15.36 0a15.36 15.36 0 1 0 30.72 0 15.36 15.36 0 1 0-30.72 0Z" fill="#FFFFFF" p-id="5876"></path><path d="M651.8784 488.0384c-22.1184 0-39.936 17.8176-39.936 39.936s17.8176 39.936 39.936 39.936 39.936-17.8176 39.936-39.936c0-21.9136-18.0224-39.936-39.936-39.936z" p-id="5877"></path></svg>