<?xml version="1.0" standalone="no"?><!DOCTYPE svg PUBLIC "-//W3C//DTD SVG 1.1//EN" "http://www.w3.org/Graphics/SVG/1.1/DTD/svg11.dtd"><svg t="1769048838152" class="icon" viewBox="0 0 1024 1024" version="1.1" xmlns="http://www.w3.org/2000/svg" p-id="4768" xmlns:xlink="http://www.w3.org/1999/xlink" width="200" height="200"><path d="M512 710.530612c-169.795918 0-308.244898-138.44898-308.244898-308.244898s138.44898-308.244898 308.244898-308.244898 308.244898 138.44898 308.244898 308.244898-138.44898 308.244898-308.244898 308.244898z m0-574.693877c-146.808163 0-266.44898 119.640816-266.44898 266.448979s119.640816 266.44898 266.44898 266.44898 266.44898-119.640816 266.44898-266.44898-119.640816-266.44898-266.44898-266.448979z" fill="#333333" p-id="4769"></path><path d="M512 527.673469c-68.963265 0-125.387755-56.42449-125.387755-125.387755s56.42449-125.387755 125.387755-125.387755 125.387755 56.42449 125.387755 125.387755-56.42449 125.387755-125.387755 125.387755z m0-208.979591c-45.97551 0-83.591837 37.616327-83.591837 83.591836s37.616327 83.591837 83.591837 83.591837 83.591837-37.616327 83.591837-83.591837-37.616327-83.591837-83.591837-83.591836zM879.804082 929.959184c-7.314286 0-14.628571-4.179592-18.285715-10.971429-69.485714-128.522449-203.755102-208.457143-349.518367-208.457143s-280.032653 79.934694-349.518367 208.457143c-5.746939 9.926531-18.285714 14.106122-28.212245 8.359184-9.926531-5.746939-14.106122-18.285714-8.359184-28.212245C202.710204 757.028571 350.563265 668.734694 512 668.734694s309.289796 88.293878 386.089796 230.4c5.746939 9.926531 1.567347 22.987755-8.359184 28.212245-3.134694 1.567347-6.791837 2.612245-9.92653 2.612245z" fill="#333333" p-id="4770"></path></svg>